#tb 0: 1/44100
#media_type 0: audio
#codec_id 0: eac3
#sample_rate 0: 44100
#channel_layout_name 0: 7.1.2
0,       -256,       -256,     1536,     6626, 0xd968dead
0,       1280,       1280,     1536,     6628, 0x6e301b19
0,       2816,       2816,     1536,     6626, 0xd075ef71
0,       4352,       4352,     1536,     6626, 0x90ed1ec3
0,       5888,       5888,     1536,     6626, 0x175be815
0,       7424,       7424,     1536,     6626, 0xe9b0e572
0,       8960,       8960,     1536,     6628, 0x3911082a
0,      10496,      10496,     1536,     6626, 0x6bcc0375
